<svg width="20" height="20" viewBox="0 0 20 20" fill="none" xmlns="http://www.w3.org/2000/svg">
<g clip-path="url(#clip0_2_5251)">
<mask id="mask0_2_5251" style="mask-type:luminance" maskUnits="userSpaceOnUse" x="0" y="0" width="20" height="20">
<path d="M20 0H0V20H20V0Z" fill="white"/>
</mask>
<g mask="url(#mask0_2_5251)">
<path d="M16.29 18.31C16.29 15.6 13.47 13.4 10 13.4C6.53 13.4 3.71 15.6 3.71 18.31C3.71 18.81 3.3 19.22 2.8 19.22C2.3 19.22 1.89 18.81 1.89 18.31C1.89 14.61 5.53 11.59 10 11.59C14.47 11.59 18.11 14.6 18.11 18.31C18.11 18.81 17.7 19.22 17.2 19.22C16.7 19.22 16.29 18.81 16.29 18.31ZM4.9 5.85C4.87 3.03 7.14 0.730001 9.95 0.700001C12.77 0.670001 15.07 2.94 15.1 5.75C15.13 8.57 12.86 10.87 10.05 10.9H10C7.2 10.9 4.92 8.65 4.9 5.85ZM6.72 5.85C6.7 7.66 8.16 9.15 9.97 9.16C11.78 9.18 13.27 7.72 13.28 5.91C13.3 4.1 11.84 2.61 10.03 2.6H10C8.2 2.6 6.73 4.05 6.71 5.85H6.72Z" fill="#FF7700"/>
</g>
</g>
<defs>
<clipPath id="clip0_2_5251">
<rect width="20" height="20" fill="white"/>
</clipPath>
</defs>
</svg>
