<svg width="20" height="20" viewBox="0 0 20 20" fill="none" xmlns="http://www.w3.org/2000/svg">
<g clip-path="url(#clip0_2_5267)">
<mask id="mask0_2_5267" style="mask-type:luminance" maskUnits="userSpaceOnUse" x="0" y="0" width="20" height="20">
<path d="M20 0H0V20H20V0Z" fill="white"/>
</mask>
<g mask="url(#mask0_2_5267)">
<path d="M13.99 18.1H3.18C1.92 18.1 0.910004 17.08 0.910004 15.83V8.9C0.910004 7.64 1.93 6.63 3.18 6.63H13.99C15.25 6.63 16.26 7.65 16.27 8.9V15.83C16.27 17.09 15.25 18.1 13.99 18.1ZM3.18 8.4C2.9 8.4 2.68 8.62 2.68 8.9V15.83C2.68 16.11 2.9 16.33 3.18 16.33H13.99C14.27 16.33 14.49 16.11 14.49 15.83V8.9C14.49 8.62 14.27 8.4 13.99 8.4H3.18Z" fill="#FF7700"/>
<path d="M16.77 13.94H15.38C14.89 13.94 14.49 13.54 14.49 13.05C14.49 12.56 14.89 12.16 15.38 12.16H16.77C17.05 12.16 17.27 11.94 17.27 11.66V4.72995C17.27 4.44995 17.05 4.22995 16.77 4.22995H5.95001C5.67001 4.22995 5.45001 4.44995 5.45001 4.72995C5.45001 5.21995 5.05001 5.61995 4.56001 5.61995C4.07001 5.61995 3.67001 5.21995 3.67001 4.72995C3.67001 3.46995 4.69001 2.45995 5.95001 2.44995H16.76C18.02 2.44995 19.03 3.46995 19.04 4.72995V11.66C19.04 12.91 18.02 13.93 16.77 13.94Z" fill="#FF7700"/>
<path d="M14.44 11.5599H5.56001C5.07001 11.5599 4.67001 11.1599 4.67001 10.6699C4.67001 10.1799 5.07001 9.77991 5.56001 9.77991H14.45C14.94 9.77991 15.34 10.1799 15.34 10.6699C15.34 11.1599 14.94 11.5599 14.45 11.5599H14.44Z" fill="#FF7700"/>
<path d="M12.67 15.3299H9.34001C8.85001 15.3299 8.45001 14.9299 8.45001 14.4399C8.45001 13.9499 8.85001 13.5499 9.34001 13.5499H12.67C13.16 13.5499 13.56 13.9499 13.56 14.4399C13.56 14.9299 13.16 15.3299 12.67 15.3299Z" fill="#FF7700"/>
</g>
</g>
<defs>
<clipPath id="clip0_2_5267">
<rect width="20" height="20" fill="white"/>
</clipPath>
</defs>
</svg>
