<svg width="20" height="20" viewBox="0 0 20 20" fill="none" xmlns="http://www.w3.org/2000/svg">
<g clip-path="url(#clip0_1270_1241)">
<mask id="mask0_1270_1241" style="mask-type:luminance" maskUnits="userSpaceOnUse" x="0" y="0" width="20" height="20">
<path d="M20 0H0V20H20V0Z" fill="white"/>
</mask>
<g mask="url(#mask0_1270_1241)">
<path d="M4.30001 19.2501C3.83001 19.2501 3.45001 18.8701 3.45001 18.4001V10.0001C3.45001 9.53011 3.83001 9.15011 4.30001 9.15011H4.94001V5.80011C4.98001 3.01011 7.28001 0.78011 10.07 0.82011C12.8 0.86011 15.01 3.07011 15.05 5.80011V9.15011H15.69C16.16 9.15011 16.54 9.53011 16.54 10.0001V18.4001C16.54 18.8701 16.16 19.2501 15.69 19.2501H4.30001ZM5.16001 17.5501H14.84V10.8601H5.16001V17.5501ZM13.35 9.15011V5.80011C13.38 3.95011 11.91 2.43011 10.06 2.39011C8.21001 2.36011 6.69001 3.83011 6.65001 5.68011C6.65001 5.72011 6.65001 5.76011 6.65001 5.80011V9.15011H13.34H13.35ZM9.15001 15.2701V13.1301C9.15001 12.6601 9.53001 12.2801 10 12.2801C10.47 12.2801 10.85 12.6601 10.85 13.1301V15.2701C10.85 15.7401 10.47 16.1201 10 16.1201C9.53001 16.1201 9.15001 15.7401 9.15001 15.2701Z" fill="#919191"/>
</g>
</g>
<defs>
<clipPath id="clip0_1270_1241">
<rect width="20" height="20" fill="white"/>
</clipPath>
</defs>
</svg>
