<svg width="20" height="20" viewBox="0 0 20 20" fill="none" xmlns="http://www.w3.org/2000/svg">
<g clip-path="url(#clip0_1270_1048)">
<mask id="mask0_1270_1048" style="mask-type:luminance" maskUnits="userSpaceOnUse" x="0" y="0" width="20" height="20">
<path d="M20 0H0V20H20V0Z" fill="white"/>
</mask>
<g mask="url(#mask0_1270_1048)">
<path d="M3.96002 18.7001C2.51002 18.7001 1.34002 17.5301 1.33002 16.0801V12.6101C1.34002 12.1201 1.75002 11.7301 2.24002 11.7501C2.71002 11.7601 3.09002 12.1401 3.10002 12.6101V16.0801C3.10002 16.5501 3.48002 16.9301 3.95002 16.9301H16.1C16.57 16.9301 16.94 16.5501 16.95 16.0801V12.6101C16.96 12.1201 17.37 11.7301 17.86 11.7501C18.33 11.7601 18.71 12.1401 18.72 12.6101V16.0801C18.72 17.5301 17.55 18.7001 16.1 18.7001H3.96002ZM5.06002 8.90009C4.71002 8.55009 4.71002 7.99009 5.06002 7.64009C5.41002 7.29009 5.97002 7.29009 6.32002 7.64009L9.14002 10.4601V2.20009C9.15002 1.71009 9.56002 1.32009 10.05 1.34009C10.52 1.35009 10.9 1.73009 10.91 2.20009V10.4701L13.73 7.65009C14.08 7.30009 14.64 7.30009 14.99 7.65009C15.34 8.00009 15.34 8.56009 14.99 8.91009L10.02 13.8801L5.05002 8.91009L5.06002 8.90009Z" fill="#919191"/>
</g>
</g>
<defs>
<clipPath id="clip0_1270_1048">
<rect width="20" height="20" fill="white"/>
</clipPath>
</defs>
</svg>
